<svg width="17" height="17" viewBox="0 0 17 17" fill="none" xmlns="http://www.w3.org/2000/svg">
<g clip-path="url(#clip0_2944_852)">
<rect width="16" height="16" transform="translate(0.5 0.5)" fill="white" fill-opacity="0.01"/>
<g clip-path="url(#clip1_2944_852)">
<path d="M14.4998 1.49921C14.765 1.49921 15.0193 1.60456 15.2069 1.7921C15.3944 1.97964 15.4998 2.23399 15.4998 2.49921V14.4992C15.4998 14.7644 15.3944 15.0188 15.2069 15.2063C15.0193 15.3938 14.765 15.4992 14.4998 15.4992H2.49976C2.23454 15.4992 1.98019 15.3938 1.79265 15.2063C1.60511 15.0188 1.49976 14.7644 1.49976 14.4992V2.49921C1.49976 2.23399 1.60511 1.97964 1.79265 1.7921C1.98019 1.60456 2.23454 1.49921 2.49976 1.49921H14.4998ZM2.49976 0.499207C1.96932 0.499207 1.46062 0.70992 1.08554 1.08499C0.71047 1.46007 0.499756 1.96877 0.499756 2.49921V14.4992C0.499756 15.0296 0.71047 15.5383 1.08554 15.9134C1.46062 16.2885 1.96932 16.4992 2.49976 16.4992H14.4998C15.0302 16.4992 15.5389 16.2885 15.914 15.9134C16.289 15.5383 16.4998 15.0296 16.4998 14.4992V2.49921C16.4998 1.96877 16.289 1.46007 15.914 1.08499C15.5389 0.70992 15.0302 0.499207 14.4998 0.499207H2.49976Z" fill="black"/>
<path d="M8.49976 4.49921C8.63236 4.49921 8.75954 4.55189 8.85331 4.64565C8.94708 4.73942 8.99976 4.8666 8.99976 4.99921V7.99921H11.9998C12.1324 7.99921 12.2595 8.05189 12.3533 8.14565C12.4471 8.23942 12.4998 8.3666 12.4998 8.49921C12.4998 8.63181 12.4471 8.75899 12.3533 8.85276C12.2595 8.94653 12.1324 8.99921 11.9998 8.99921H8.99976V11.9992C8.99976 12.1318 8.94708 12.259 8.85331 12.3528C8.75954 12.4465 8.63236 12.4992 8.49976 12.4992C8.36715 12.4992 8.23997 12.4465 8.1462 12.3528C8.05243 12.259 7.99976 12.1318 7.99976 11.9992V8.99921H4.99976C4.86715 8.99921 4.73997 8.94653 4.6462 8.85276C4.55243 8.75899 4.49976 8.63181 4.49976 8.49921C4.49976 8.3666 4.55243 8.23942 4.6462 8.14565C4.73997 8.05189 4.86715 7.99921 4.99976 7.99921H7.99976V4.99921C7.99976 4.8666 8.05243 4.73942 8.1462 4.64565C8.23997 4.55189 8.36715 4.49921 8.49976 4.49921Z" fill="black"/>
</g>
</g>
<defs>
<clipPath id="clip0_2944_852">
<rect width="16" height="16" fill="white" transform="translate(0.5 0.5)"/>
</clipPath>
<clipPath id="clip1_2944_852">
<rect width="16" height="16" fill="white" transform="translate(0.5 0.5)"/>
</clipPath>
</defs>
</svg>
