<svg width="51" height="51" viewBox="0 0 51 51" fill="none" xmlns="http://www.w3.org/2000/svg">
<rect width="51" height="51" rx="7" fill="#FBE691"/>
<g clip-path="url(#clip0_2808_509)">
<path fill-rule="evenodd" clip-rule="evenodd" d="M32.0625 40.8125C34.3831 40.8125 36.6087 39.8906 38.2497 38.2497C39.8906 36.6087 40.8125 34.3831 40.8125 32.0625C40.8125 29.7419 39.8906 27.5163 38.2497 25.8753C36.6087 24.2344 34.3831 23.3125 32.0625 23.3125C29.7419 23.3125 27.5163 24.2344 25.8753 25.8753C24.2344 27.5163 23.3125 29.7419 23.3125 32.0625C23.3125 34.3831 24.2344 36.6087 25.8753 38.2497C27.5163 39.8906 29.7419 40.8125 32.0625 40.8125ZM43 32.0625C43 34.9633 41.8477 37.7453 39.7965 39.7965C37.7453 41.8477 34.9633 43 32.0625 43C29.1617 43 26.3797 41.8477 24.3285 39.7965C22.2773 37.7453 21.125 34.9633 21.125 32.0625C21.125 29.1617 22.2773 26.3797 24.3285 24.3285C26.3797 22.2773 29.1617 21.125 32.0625 21.125C34.9633 21.125 37.7453 22.2773 39.7965 24.3285C41.8477 26.3797 43 29.1617 43 32.0625Z" fill="white"/>
<path d="M28.6456 34.1275C28.7484 35.4313 29.7787 36.4463 31.6272 36.5688V37.5312H32.4475V36.5622C34.3616 36.4288 35.4794 35.405 35.4794 33.9219C35.4794 32.57 34.6263 31.8744 33.095 31.5156L32.4475 31.3625V28.7375C33.27 28.8316 33.7906 29.28 33.9153 29.9013H35.3547C35.2519 28.6434 34.1734 27.6613 32.4475 27.5541V26.5938H31.6272V27.5781C29.9931 27.7378 28.8819 28.72 28.8819 30.1112C28.8819 31.3406 29.7088 32.1237 31.0847 32.4431L31.6272 32.5766V35.3591C30.7872 35.2322 30.2294 34.7684 30.1047 34.1275H28.6456ZM31.6206 31.1656C30.8134 30.9797 30.3759 30.5969 30.3759 30.0237C30.3759 29.3806 30.8484 28.8994 31.6272 28.7594V31.1656H31.6206ZM32.5656 32.7975C33.5478 33.025 33.9984 33.3925 33.9984 34.0422C33.9984 34.7837 33.4362 35.2913 32.4475 35.3853V32.7713L32.5656 32.7975Z" fill="white"/>
<path d="M10.1875 8C9.60734 8 9.05094 8.23047 8.6407 8.6407C8.23047 9.05094 8 9.60734 8 10.1875V27.6875C8 28.2677 8.23047 28.8241 8.6407 29.2343C9.05094 29.6445 9.60734 29.875 10.1875 29.875H19.1191C19.2459 29.1225 19.4363 28.3919 19.6834 27.6875H14.5625C14.5625 26.5272 14.1016 25.4144 13.2811 24.5939C12.4606 23.7734 11.3478 23.3125 10.1875 23.3125V14.5625C11.3478 14.5625 12.4606 14.1016 13.2811 13.2811C14.1016 12.4606 14.5625 11.3478 14.5625 10.1875H36.4375C36.4375 11.3478 36.8984 12.4606 37.7189 13.2811C38.5394 14.1016 39.6522 14.5625 40.8125 14.5625V22.28C41.6438 23.0238 42.3809 23.8725 43 24.8044V10.1875C43 9.60734 42.7695 9.05094 42.3593 8.6407C41.9491 8.23047 41.3927 8 40.8125 8H10.1875Z" fill="white"/>
<path d="M29.8706 19.1191L29.875 18.9375C29.8746 18.1841 29.6796 17.4436 29.3089 16.7877C28.9382 16.1318 28.4045 15.5827 27.7593 15.1936C27.1142 14.8046 26.3795 14.5887 25.6264 14.5669C24.8733 14.5452 24.1274 14.7182 23.4608 15.0694C22.7943 15.4205 22.2297 15.9379 21.8218 16.5713C21.4139 17.2047 21.1764 17.9327 21.1325 18.6848C21.0885 19.4369 21.2395 20.1876 21.5708 20.8643C21.9022 21.5409 22.4026 22.1205 23.0238 22.5469C24.9132 20.7472 27.2976 19.5534 29.8706 19.1191Z" fill="white"/>
</g>
<defs>
<clipPath id="clip0_2808_509">
<rect width="35" height="35" fill="white" transform="translate(8 8)"/>
</clipPath>
</defs>
</svg>
