<svg width="32" height="32" viewBox="0 0 32 32" fill="none" xmlns="http://www.w3.org/2000/svg">
<g opacity="0.5">
<rect width="32" height="32" fill="white" fill-opacity="0.01"/>
<g clip-path="url(#clip0_2923_34395)">
<rect width="16" height="16" transform="translate(8 8)" fill="white" fill-opacity="0.01"/>
<g clip-path="url(#clip1_2923_34395)">
<path d="M8.29279 8.29223C8.48031 8.10476 8.73462 7.99944 8.99979 7.99944C9.26495 7.99944 9.51926 8.10476 9.70679 8.29223L15.9998 14.5852L22.2928 8.29223C22.385 8.19672 22.4954 8.12053 22.6174 8.06813C22.7394 8.01572 22.8706 7.98813 23.0034 7.98698C23.1362 7.98582 23.2678 8.01112 23.3907 8.06141C23.5136 8.11169 23.6253 8.18594 23.7192 8.27983C23.8131 8.37372 23.8873 8.48538 23.9376 8.60827C23.9879 8.73117 24.0132 8.86285 24.012 8.99563C24.0109 9.12841 23.9833 9.25963 23.9309 9.38163C23.8785 9.50364 23.8023 9.61398 23.7068 9.70623L17.4138 15.9992L23.7068 22.2922C23.8889 22.4808 23.9897 22.7334 23.9875 22.9956C23.9852 23.2578 23.88 23.5086 23.6946 23.694C23.5092 23.8795 23.2584 23.9846 22.9962 23.9869C22.734 23.9892 22.4814 23.8884 22.2928 23.7062L15.9998 17.4132L9.70679 23.7062C9.51818 23.8884 9.26558 23.9892 9.00339 23.9869C8.74119 23.9846 8.49038 23.8795 8.30497 23.694C8.11956 23.5086 8.01439 23.2578 8.01211 22.9956C8.00983 22.7334 8.11063 22.4808 8.29279 22.2922L14.5858 15.9992L8.29279 9.70623C8.10532 9.5187 8 9.26439 8 8.99923C8 8.73406 8.10532 8.47975 8.29279 8.29223Z" fill="black"/>
</g>
</g>
</g>
<defs>
<clipPath id="clip0_2923_34395">
<rect width="16" height="16" fill="white" transform="translate(8 8)"/>
</clipPath>
<clipPath id="clip1_2923_34395">
<rect width="16" height="16" fill="white" transform="translate(8 8)"/>
</clipPath>
</defs>
</svg>
