<svg width="26" height="26" viewBox="0 0 26 26" fill="none" xmlns="http://www.w3.org/2000/svg">
<g clip-path="url(#clip0_2513_535303)">
<path d="M0 8.12501C0.000396754 10.0055 0.652786 11.8276 1.84601 13.281C3.03924 14.7344 4.69949 15.7291 6.54387 16.0956C6.64892 14.9314 6.9477 13.7928 7.42788 12.727C6.00437 12.246 5.0895 11.154 4.875 9.60376H4.0625V8.91151H4.81975V8.20626C4.81975 8.13151 4.81975 8.05513 4.82625 7.98688H4.0625V7.29301H4.89287C5.2585 5.26501 6.84613 4.06251 9.23163 4.06251C9.74513 4.06251 10.1904 4.11288 10.5625 4.20063V5.39176C10.1279 5.29506 9.6833 5.25033 9.23812 5.25851C7.74475 5.25851 6.73887 6.01576 6.42037 7.29301H9.5355V7.98688H6.318C6.31313 8.06163 6.31313 8.14451 6.31313 8.22576V8.91151H9.5355V9.60538H6.38625C6.578 10.5836 7.14675 11.2791 8.01937 11.6025C8.875 10.1854 10.0517 8.98932 11.4546 8.11062C12.8575 7.23192 14.4472 6.69524 16.0956 6.54388C15.6971 4.57034 14.5803 2.81494 12.9615 1.61772C11.3428 0.420493 9.3373 -0.133343 7.33356 0.0634902C5.32983 0.260324 3.47045 1.19382 2.11561 2.68315C0.760765 4.17248 0.00688508 6.11164 0 8.12501H0ZM26 17.0625C26 19.4329 25.0584 21.7062 23.3823 23.3823C21.7062 25.0584 19.4329 26 17.0625 26C14.6921 26 12.4188 25.0584 10.7427 23.3823C9.06663 21.7062 8.125 19.4329 8.125 17.0625C8.125 14.6921 9.06663 12.4188 10.7427 10.7427C12.4188 9.06663 14.6921 8.12501 17.0625 8.12501C19.4329 8.12501 21.7062 9.06663 23.3823 10.7427C25.0584 12.4188 26 14.6921 26 17.0625ZM13.4062 19.2108C13.5184 20.5676 14.6185 21.6239 16.5977 21.749V22.75H17.4753V21.7425C19.5211 21.6028 20.7188 20.54 20.7188 18.9963C20.7188 17.5906 19.8039 16.8675 18.1675 16.4938L17.4753 16.3313V13.6078C18.3527 13.7053 18.9118 14.1716 19.045 14.8184H20.5855C20.4718 13.5119 19.3196 12.4898 17.4753 12.3776V11.375H16.5977V12.3971C14.8492 12.5645 13.6597 13.5866 13.6597 15.0329C13.6597 16.3118 14.5437 17.1259 16.016 17.459L16.5977 17.5971V20.4896C15.6975 20.3596 15.1028 19.8786 14.9679 19.2108H13.4062ZM16.5912 16.1314C15.7268 15.9364 15.2588 15.5399 15.2588 14.9419C15.2588 14.2756 15.7641 13.7735 16.5977 13.6273V16.1298H16.5896L16.5912 16.1314ZM17.602 17.8279C18.6501 18.0635 19.1344 18.4454 19.1344 19.1214C19.1344 19.8916 18.5331 20.4214 17.4769 20.5189V17.7986L17.602 17.8279Z" fill="#FFCF24"/>
</g>
<defs>
<clipPath id="clip0_2513_535303">
<rect width="26" height="26" fill="white"/>
</clipPath>
</defs>
</svg>
