<svg width="51" height="51" viewBox="0 0 51 51" fill="none" xmlns="http://www.w3.org/2000/svg">
<rect width="51" height="51" rx="7" fill="#FBE691"/>
<path d="M43.5 37C43.5 37 46 37 46 34.6667C46 32.3333 43.5 25.3333 33.5 25.3333C23.5 25.3333 21 32.3333 21 34.6667C21 37 23.5 37 23.5 37H43.5ZM23.555 34.6667C23.5365 34.6643 23.5182 34.6612 23.5 34.6573C23.5025 34.0413 23.9175 32.254 25.4 30.644C26.78 29.1343 29.205 27.6667 33.5 27.6667C37.7925 27.6667 40.2175 29.1367 41.6 30.644C43.0825 32.254 43.495 34.0437 43.5 34.6573L43.48 34.662C43.4684 34.6638 43.4567 34.6654 43.445 34.6667H23.555ZM33.5 20.6667C34.8261 20.6667 36.0979 20.175 37.0355 19.2998C37.9732 18.4247 38.5 17.2377 38.5 16C38.5 14.7623 37.9732 13.5753 37.0355 12.7002C36.0979 11.825 34.8261 11.3333 33.5 11.3333C32.1739 11.3333 30.9021 11.825 29.9645 12.7002C29.0268 13.5753 28.5 14.7623 28.5 16C28.5 17.2377 29.0268 18.4247 29.9645 19.2998C30.9021 20.175 32.1739 20.6667 33.5 20.6667ZM41 16C41 16.9193 40.806 17.8295 40.4291 18.6788C40.0522 19.5281 39.4997 20.2997 38.8033 20.9497C38.1069 21.5998 37.2801 22.1154 36.3701 22.4672C35.4602 22.8189 34.4849 23 33.5 23C32.5151 23 31.5398 22.8189 30.6299 22.4672C29.7199 22.1154 28.8931 21.5998 28.1967 20.9497C27.5003 20.2997 26.9478 19.5281 26.5709 18.6788C26.194 17.8295 26 16.9193 26 16C26 14.1435 26.7902 12.363 28.1967 11.0503C29.6032 9.7375 31.5109 9 33.5 9C35.4891 9 37.3968 9.7375 38.8033 11.0503C40.2098 12.363 41 14.1435 41 16ZM23.34 25.9867C22.34 25.6928 21.3091 25.4995 20.265 25.4103C19.6783 25.3583 19.0893 25.3326 18.5 25.3333C8.5 25.3333 6 32.3333 6 34.6667C6 36.223 6.8325 37 8.5 37H19.04C18.6694 36.2716 18.4846 35.4729 18.5 34.6667C18.5 32.31 19.4425 29.902 21.225 27.8907C21.8325 27.2047 22.54 26.563 23.34 25.9867ZM18.3 27.6667C16.8204 29.7416 16.0211 32.1742 16 34.6667H8.5C8.5 34.06 8.91 32.2633 10.4 30.644C11.7625 29.16 14.13 27.7133 18.3 27.669V27.6667ZM9.75 17.1667C9.75 15.3102 10.5402 13.5297 11.9467 12.2169C13.3532 10.9042 15.2609 10.1667 17.25 10.1667C19.2391 10.1667 21.1468 10.9042 22.5533 12.2169C23.9598 13.5297 24.75 15.3102 24.75 17.1667C24.75 19.0232 23.9598 20.8037 22.5533 22.1164C21.1468 23.4292 19.2391 24.1667 17.25 24.1667C15.2609 24.1667 13.3532 23.4292 11.9467 22.1164C10.5402 20.8037 9.75 19.0232 9.75 17.1667ZM17.25 12.5C15.9239 12.5 14.6521 12.9917 13.7145 13.8668C12.7768 14.742 12.25 15.929 12.25 17.1667C12.25 18.4043 12.7768 19.5913 13.7145 20.4665C14.6521 21.3417 15.9239 21.8333 17.25 21.8333C18.5761 21.8333 19.8479 21.3417 20.7855 20.4665C21.7232 19.5913 22.25 18.4043 22.25 17.1667C22.25 15.929 21.7232 14.742 20.7855 13.8668C19.8479 12.9917 18.5761 12.5 17.25 12.5Z" fill="white"/>
</svg>
