<svg width="23" height="23" viewBox="0 0 23 23" fill="none" xmlns="http://www.w3.org/2000/svg">
<g clip-path="url(#clip0_2513_535298)">
<path d="M0 7.1875C0.000350975 8.85098 0.577464 10.4629 1.63301 11.7486C2.68856 13.0343 4.15724 13.9142 5.78881 14.2384C5.88174 13.2085 6.14604 12.2013 6.57081 11.2585C5.31156 10.833 4.50225 9.867 4.3125 8.49562H3.59375V7.88325H4.26363V7.25938C4.26363 7.19325 4.26363 7.12569 4.26937 7.06531H3.59375V6.4515H4.32831C4.65175 4.6575 6.05619 3.59375 8.16644 3.59375C8.62069 3.59375 9.01456 3.63831 9.34375 3.71594V4.76963C8.95927 4.68408 8.566 4.64451 8.17219 4.65175C6.85112 4.65175 5.96131 5.32162 5.67956 6.4515H8.43525V7.06531H5.589C5.58469 7.13144 5.58469 7.20475 5.58469 7.27662V7.88325H8.43525V8.49706H5.64937C5.819 9.36244 6.32212 9.97769 7.09406 10.2638C7.85096 9.01019 8.8919 7.95208 10.1329 7.17477C11.3739 6.39746 12.7802 5.92271 14.2384 5.78881C13.8859 4.04299 12.8979 2.49013 11.466 1.43105C10.034 0.371967 8.25992 -0.117965 6.48738 0.0561574C4.71485 0.230279 3.07001 1.05606 1.8715 2.37355C0.672984 3.69103 0.00609065 5.40644 0 7.1875H0ZM23 15.0938C23 17.1906 22.167 19.2016 20.6843 20.6843C19.2016 22.167 17.1906 23 15.0938 23C12.9969 23 10.9859 22.167 9.50319 20.6843C8.02048 19.2016 7.1875 17.1906 7.1875 15.0938C7.1875 12.9969 8.02048 10.9859 9.50319 9.50319C10.9859 8.02048 12.9969 7.1875 15.0938 7.1875C17.1906 7.1875 19.2016 8.02048 20.6843 9.50319C22.167 10.9859 23 12.9969 23 15.0938ZM11.8594 16.9941C11.9586 18.1944 12.9317 19.1288 14.6826 19.2395V20.125H15.4589V19.2338C17.2687 19.1101 18.3281 18.17 18.3281 16.8044C18.3281 15.5609 17.5188 14.9213 16.0713 14.5906L15.4589 14.4469V12.0376C16.2351 12.1239 16.7296 12.5364 16.8475 13.1086H18.2103C18.1096 11.9528 17.0904 11.0486 15.4589 10.9494V10.0625H14.6826V10.9667C13.1359 11.1147 12.0836 12.0189 12.0836 13.2983C12.0836 14.4296 12.8656 15.1498 14.168 15.4445L14.6826 15.5667V18.1254C13.8862 18.0104 13.3601 17.5849 13.2408 16.9941H11.8594ZM14.6769 14.2701C13.9121 14.0976 13.4981 13.7468 13.4981 13.2178C13.4981 12.6284 13.9452 12.1842 14.6826 12.0549V14.2686H14.6754L14.6769 14.2701ZM15.571 15.7708C16.4982 15.9792 16.9266 16.3171 16.9266 16.9151C16.9266 17.5964 16.3947 18.0651 15.4603 18.1513V15.7449L15.571 15.7708Z" fill="#505050"/>
</g>
<defs>
<clipPath id="clip0_2513_535298">
<rect width="23" height="23" fill="white"/>
</clipPath>
</defs>
</svg>
