<svg width="142" height="60" viewBox="0 0 142 60" fill="none" xmlns="http://www.w3.org/2000/svg">
<g filter="url(#filter0_d_3100_973)">
<path d="M0.0480001 28.384C0.0480001 20.32 2.13867 13.7493 6.32 8.672C10.7573 3.168 16.8373 0.415997 24.56 0.415997C30.1493 0.415997 34.352 1.78133 37.168 4.512C39.984 7.2 41.392 11.4027 41.392 17.12C41.392 25.824 39.1733 32.7147 34.736 37.792C30.3413 42.784 24.4533 45.28 17.072 45.28C11.312 45.28 7.024 43.8507 4.208 40.992C1.43467 38.0907 0.0480001 33.888 0.0480001 28.384ZM16.88 15.136C14.96 22.816 14 29.6853 14 35.744C14 37.1947 14.2347 38.3893 14.704 39.328C15.216 40.2667 16.112 40.736 17.392 40.736C18.7147 40.736 19.7813 40.4373 20.592 39.84C21.4027 39.2 22.128 38.176 22.768 36.768C23.792 34.464 24.7733 30.88 25.712 26.016C26.6933 21.1093 27.2267 17.6533 27.312 15.648C27.3973 13.6 27.44 11.808 27.44 10.272C27.44 8.736 27.2053 7.47733 26.736 6.496C26.2667 5.51466 25.392 5.024 24.112 5.024C22.8747 5.024 21.8293 5.408 20.976 6.176C19.3973 7.62666 18.032 10.6133 16.88 15.136ZM74.3495 39.648C72.5575 41.44 70.4242 42.8267 67.9495 43.808C65.5175 44.7893 63.0855 45.28 60.6535 45.28C58.2215 45.28 56.5788 45.0667 55.7255 44.64L53.7415 55.52L40.7495 56.8L49.5815 11.36L60.0135 10.272L59.1815 14.688C60.9735 11.6587 63.7255 10.144 67.4375 10.144C71.6188 10.144 74.8188 11.488 77.0375 14.176C79.0002 16.608 79.9815 19.68 79.9815 23.392C79.9815 27.104 79.4908 30.2827 78.5095 32.928C77.5282 35.5733 76.1415 37.8133 74.3495 39.648ZM56.4935 40.416C57.3895 41.184 58.3922 41.568 59.5015 41.568C60.6108 41.568 61.4855 41.3547 62.1255 40.928C62.7655 40.5013 63.3202 39.8613 63.7895 39.008C65.0695 36.704 66.2215 32.0533 67.2455 25.056C67.5442 23.008 67.6935 20.9813 67.6935 18.976C67.6935 16.9707 67.4588 15.648 66.9895 15.008C66.5628 14.368 65.9228 14.048 65.0695 14.048C62.4668 14.048 60.7388 16.5867 59.8855 21.664L56.4935 40.416ZM86.59 42.08C85.6087 40.9707 84.8833 39.5413 84.414 37.792C83.9873 36.0427 83.774 33.7387 83.774 30.88C83.774 28.0213 84.2647 25.2907 85.246 22.688C86.2273 20.0853 87.614 17.8453 89.406 15.968C93.0753 12.0427 97.9393 10.08 103.998 10.08C106.174 10.08 108.051 10.4427 109.63 11.168L120.574 10.08L115.838 35.04C115.71 35.552 115.646 36.2773 115.646 37.216C115.646 38.1547 115.923 38.9227 116.478 39.52C117.075 40.1173 117.801 40.4587 118.654 40.544C118.227 41.9947 117.225 43.1467 115.646 44C114.11 44.8533 112.467 45.28 110.718 45.28C108.969 45.28 107.497 44.9387 106.302 44.256C105.15 43.616 104.403 42.7413 104.062 41.632C103.379 42.6987 102.313 43.5733 100.862 44.256C99.4113 44.9387 97.7047 45.28 95.742 45.28C93.822 45.28 92.0727 45.024 90.494 44.512C88.9153 44 87.614 43.1893 86.59 42.08ZM100.094 16.096C99.6247 16.864 99.1767 17.9093 98.75 19.232C98.3233 20.512 97.7473 22.9013 97.022 26.4C96.3393 29.856 95.998 32.8213 95.998 35.296C95.998 37.7707 96.19 39.3707 96.574 40.096C96.958 40.8213 97.4913 41.184 98.174 41.184C99.5393 41.184 100.713 40.544 101.694 39.264C102.718 37.9413 103.422 36.128 103.806 33.824L107.198 15.072C106.302 14.304 105.321 13.92 104.254 13.92C103.23 13.92 102.398 14.0907 101.758 14.432C101.161 14.7733 100.606 15.328 100.094 16.096ZM122.297 40.224C122.297 38.6027 122.895 37.3653 124.09 36.512C125.327 35.616 126.842 35.168 128.634 35.168C130.426 35.168 131.876 35.616 132.986 36.512C134.138 37.3653 134.714 38.6027 134.714 40.224C134.714 41.8453 134.074 43.104 132.794 44C131.556 44.896 130.042 45.344 128.25 45.344C126.458 45.344 125.007 44.896 123.898 44C122.831 43.104 122.297 41.8453 122.297 40.224ZM125.754 28.192C125.754 27.8933 125.796 27.5307 125.882 27.104L130.874 1.376C132.452 0.778666 134.18 0.48 136.058 0.48C137.935 0.48 139.364 1.07733 140.346 2.272C141.327 3.46667 141.818 4.96 141.818 6.752C141.818 8.50133 141.476 10.3787 140.794 12.384C140.111 14.3467 139.343 16.3307 138.49 18.336C137.679 20.3413 136.911 22.3893 136.186 24.48C135.503 26.528 135.14 28.64 135.098 30.816C134.116 31.9253 132.772 32.48 131.066 32.48C129.359 32.48 128.036 32.096 127.098 31.328C126.202 30.5173 125.754 29.472 125.754 28.192Z" fill="#FFCF24"/>
</g>
<defs>
<filter id="filter0_d_3100_973" x="0.0479736" y="0.416016" width="141.77" height="59.384" filterUnits="userSpaceOnUse" color-interpolation-filters="sRGB">
<feFlood flood-opacity="0" result="BackgroundImageFix"/>
<feColorMatrix in="SourceAlpha" type="matrix" values="0 0 0 0 0 0 0 0 0 0 0 0 0 0 0 0 0 0 127 0" result="hardAlpha"/>
<feOffset dy="3"/>
<feComposite in2="hardAlpha" operator="out"/>
<feColorMatrix type="matrix" values="0 0 0 0 0.352941 0 0 0 0 0.352941 0 0 0 0 0.352941 0 0 0 1 0"/>
<feBlend mode="normal" in2="BackgroundImageFix" result="effect1_dropShadow_3100_973"/>
<feBlend mode="normal" in="SourceGraphic" in2="effect1_dropShadow_3100_973" result="shape"/>
</filter>
</defs>
</svg>
