<?xml version="1.0" encoding="utf-8"?>
<svg viewBox="40.645 41.8438 95.8567 38.1239" xmlns="http://www.w3.org/2000/svg">
  <defs>
    <filter id="filter0_d_2793_556" x="49.152" y="46.484" width="79.7454" height="34.7159" filterUnits="userSpaceOnUse" color-interpolation-filters="sRGB">
      <feFlood flood-opacity="0" result="BackgroundImageFix"/>
      <feColorMatrix in="SourceAlpha" type="matrix" values="0 0 0 0 0 0 0 0 0 0 0 0 0 0 0 0 0 0 127 0" result="hardAlpha"/>
      <feOffset dy="3"/>
      <feComposite in2="hardAlpha" operator="out"/>
      <feColorMatrix type="matrix" values="0 0 0 0 1 0 0 0 0 0.811765 0 0 0 0 0.141176 0 0 0 1 0"/>
      <feBlend mode="normal" in2="BackgroundImageFix" result="effect1_dropShadow_2793_556"/>
      <feBlend mode="normal" in="SourceGraphic" in2="effect1_dropShadow_2793_556" result="shape"/>
    </filter>
  </defs>
  <g filter="url(#filter0_d_2793_556)" transform="matrix(1.2020399570465088, 0, 0, 1.0944039821624756, -18.437665939331055, -9.028470993041992)" style="">
    <path d="M49.152 62.216C49.152 57.68 50.328 53.984 52.68 51.128C55.176 48.032 58.596 46.484 62.94 46.484C66.084 46.484 68.448 47.252 70.032 48.788C71.616 50.3 72.408 52.664 72.408 55.88C72.408 60.776 71.16 64.652 68.664 67.508C66.192 70.316 62.88 71.72 58.728 71.72C55.488 71.72 53.076 70.916 51.492 69.308C49.932 67.676 49.152 65.312 49.152 62.216ZM58.62 54.764C57.54 59.084 57 62.948 57 66.356C57 67.172 57.132 67.844 57.396 68.372C57.684 68.9 58.188 69.164 58.908 69.164C59.652 69.164 60.252 68.996 60.708 68.66C61.164 68.3 61.572 67.724 61.932 66.932C62.508 65.636 63.06 63.62 63.588 60.884C64.14 58.124 64.44 56.18 64.488 55.052C64.536 53.9 64.56 52.892 64.56 52.028C64.56 51.164 64.428 50.456 64.164 49.904C63.9 49.352 63.408 49.076 62.688 49.076C61.992 49.076 61.404 49.292 60.924 49.724C60.036 50.54 59.268 52.22 58.62 54.764ZM90.9466 68.552C89.9386 69.56 88.7386 70.34 87.3466 70.892C85.9786 71.444 84.6106 71.72 83.2426 71.72C81.8746 71.72 80.9506 71.6 80.4706 71.36L79.3546 77.48L72.0466 78.2L77.0146 52.64L82.8826 52.028L82.4146 54.512C83.4226 52.808 84.9706 51.956 87.0586 51.956C89.4106 51.956 91.2106 52.712 92.4586 54.224C93.5626 55.592 94.1146 57.32 94.1146 59.408C94.1146 61.496 93.8386 63.284 93.2866 64.772C92.7346 66.26 91.9546 67.52 90.9466 68.552ZM80.9026 68.984C81.4066 69.416 81.9706 69.632 82.5946 69.632C83.2186 69.632 83.7106 69.512 84.0706 69.272C84.4306 69.032 84.7426 68.672 85.0066 68.192C85.7266 66.896 86.3746 64.28 86.9506 60.344C87.1186 59.192 87.2026 58.052 87.2026 56.924C87.2026 55.796 87.0706 55.052 86.8066 54.692C86.5666 54.332 86.2066 54.152 85.7266 54.152C84.2626 54.152 83.2906 55.58 82.8106 58.436L80.9026 68.984ZM97.8319 69.92C97.2799 69.296 96.8719 68.492 96.6079 67.508C96.3679 66.524 96.2479 65.228 96.2479 63.62C96.2479 62.012 96.5239 60.476 97.0759 59.012C97.6279 57.548 98.4079 56.288 99.4159 55.232C101.48 53.024 104.216 51.92 107.624 51.92C108.848 51.92 109.904 52.124 110.792 52.532L116.948 51.92L114.284 65.96C114.212 66.248 114.176 66.656 114.176 67.184C114.176 67.712 114.332 68.144 114.644 68.48C114.98 68.816 115.388 69.008 115.868 69.056C115.628 69.872 115.064 70.52 114.176 71C113.312 71.48 112.388 71.72 111.404 71.72C110.42 71.72 109.592 71.528 108.92 71.144C108.272 70.784 107.852 70.292 107.66 69.668C107.276 70.268 106.676 70.76 105.86 71.144C105.044 71.528 104.084 71.72 102.98 71.72C101.9 71.72 100.916 71.576 100.028 71.288C99.1399 71 98.4079 70.544 97.8319 69.92ZM105.428 55.304C105.164 55.736 104.912 56.324 104.672 57.068C104.432 57.788 104.108 59.132 103.7 61.1C103.316 63.044 103.124 64.712 103.124 66.104C103.124 67.496 103.232 68.396 103.448 68.804C103.664 69.212 103.964 69.416 104.348 69.416C105.116 69.416 105.776 69.056 106.328 68.336C106.904 67.592 107.3 66.572 107.516 65.276L109.424 54.728C108.92 54.296 108.368 54.08 107.768 54.08C107.192 54.08 106.724 54.176 106.364 54.368C106.028 54.56 105.716 54.872 105.428 55.304ZM117.917 68.876C117.917 67.964 118.253 67.268 118.925 66.788C119.621 66.284 120.473 66.032 121.481 66.032C122.489 66.032 123.305 66.284 123.929 66.788C124.577 67.268 124.901 67.964 124.901 68.876C124.901 69.788 124.541 70.496 123.821 71C123.125 71.504 122.273 71.756 121.265 71.756C120.257 71.756 119.441 71.504 118.817 71C118.217 70.496 117.917 69.788 117.917 68.876ZM119.861 62.108C119.861 61.94 119.885 61.736 119.933 61.496L122.741 47.024C123.629 46.688 124.601 46.52 125.657 46.52C126.713 46.52 127.517 46.856 128.069 47.528C128.621 48.2 128.897 49.04 128.897 50.048C128.897 51.032 128.705 52.088 128.321 53.216C127.937 54.32 127.505 55.436 127.025 56.564C126.569 57.692 126.137 58.844 125.729 60.02C125.345 61.172 125.141 62.36 125.117 63.584C124.565 64.208 123.809 64.52 122.849 64.52C121.889 64.52 121.145 64.304 120.617 63.872C120.113 63.416 119.861 62.828 119.861 62.108Z" fill="#5A5A5A"/>
  </g>
</svg>