<svg width="120" height="120" viewBox="0 0 120 120" fill="none" xmlns="http://www.w3.org/2000/svg">
<rect width="120" height="120" fill="white"/>
<g filter="url(#filter0_d_2793_568)">
<ellipse cx="60" cy="76" rx="48" ry="14" fill="white"/>
<path d="M60 91.5C73.3557 91.5 85.5037 89.9229 94.3611 87.3395C98.7799 86.0507 102.465 84.4872 105.079 82.6843C107.647 80.9134 109.5 78.6798 109.5 76C109.5 73.3202 107.647 71.0866 105.079 69.3157C102.465 67.5128 98.7799 65.9493 94.3611 64.6605C85.5037 62.0771 73.3557 60.5 60 60.5C46.6443 60.5 34.4963 62.0771 25.6389 64.6605C21.2201 65.9493 17.535 67.5128 14.9205 69.3157C12.3525 71.0866 10.5 73.3202 10.5 76C10.5 78.6798 12.3525 80.9134 14.9205 82.6843C17.535 84.4872 21.2201 86.0507 25.6389 87.3395C34.4963 89.9229 46.6443 91.5 60 91.5Z" stroke="#5A5A5A" stroke-width="3"/>
</g>
<g filter="url(#filter1_d_2793_568)">
<path d="M102 70.5001C102 85.964 85.1812 82.5 59.5 82.5C33.8188 82.5 19 85.964 19 70.5001C19 55.0361 36.3188 38 62 38C87.6812 38 102 55.0361 102 70.5001Z" fill="white"/>
<path d="M100.5 70.5001C100.5 74.0823 99.5367 76.3159 97.9462 77.8034C96.2998 79.3431 93.7589 80.2974 90.1668 80.8143C86.5897 81.3291 82.1867 81.3829 76.9989 81.2998C75.2665 81.2721 73.4454 81.229 71.5462 81.1841C67.8072 81.0956 63.7652 81 59.5 81C55.1896 81 51.1639 81.0976 47.4857 81.1868C45.6746 81.2308 43.9478 81.2727 42.3127 81.2998C37.3099 81.383 33.1657 81.3285 29.8483 80.8166C26.5247 80.3037 24.2529 79.3624 22.7945 77.8557C21.3669 76.3807 20.5 74.133 20.5 70.5001C20.5 56.1273 36.8574 39.5 62 39.5C86.9859 39.5 100.5 55.9916 100.5 70.5001Z" stroke="#5A5A5A" stroke-width="3"/>
</g>
<path d="M25 71.5C25 56.5 43.5 46 49 46" stroke="#FFCF24" stroke-width="3" stroke-linecap="round"/>
<path d="M54 44.5V44.5C57.8608 42.8914 62.1825 42.7795 66.1213 44.1862L67 44.5" stroke="#FFCF24" stroke-width="3" stroke-linecap="round"/>
<path d="M66.5 37.6608C66.5 38.3338 66.3405 38.6274 66.2201 38.7715C66.0873 38.9304 65.8306 39.1118 65.2828 39.2529C64.7267 39.396 64.0013 39.4646 63.0751 39.4886C62.4528 39.5048 61.804 39.5005 61.0995 39.4959C60.7481 39.4936 60.3828 39.4912 60 39.4912C59.6172 39.4912 59.2519 39.4936 58.9004 39.4959C58.196 39.5005 57.5472 39.5048 56.9249 39.4886C55.9987 39.4646 55.2733 39.396 54.7172 39.2529C54.1694 39.1118 53.9127 38.9304 53.7799 38.7715C53.6595 38.6274 53.5 38.3338 53.5 37.6608C53.5 35.0561 56.1411 32.5 60 32.5C63.8589 32.5 66.5 35.0561 66.5 37.6608Z" fill="white" stroke="#5A5A5A" stroke-width="3"/>
<g filter="url(#filter2_d_2793_568)">
<path d="M36.0526 36L35.1203 34.879C32.711 31.9819 32.6301 27.8024 34.9253 24.8142V24.8142C36.2517 23.0874 36.8231 20.8975 36.5095 18.7429L36.4861 18.5819C36.2057 16.6558 35.2687 14.8856 33.8336 13.5708L33.2105 13" stroke="#5A5A5A" stroke-width="3" stroke-linecap="round"/>
</g>
<g filter="url(#filter3_d_2793_568)">
<path d="M88.0526 36L87.1203 34.879C84.711 31.9819 84.6301 27.8024 86.9253 24.8142V24.8142C88.2517 23.0874 88.8231 20.8975 88.5095 18.7429L88.4861 18.5819C88.2057 16.6558 87.2687 14.8856 85.8336 13.5708L85.2105 13" stroke="#5A5A5A" stroke-width="3" stroke-linecap="round"/>
</g>
<g filter="url(#filter4_d_2793_568)">
<path d="M62.0526 27L61.1203 25.879C58.711 22.9819 58.6301 18.8024 60.9253 15.8142V15.8142C62.2517 14.0874 62.8231 11.8975 62.5095 9.74287L62.4861 9.58194C62.2057 7.65581 61.2687 5.88562 59.8336 4.57078L59.2105 4" stroke="#5A5A5A" stroke-width="3" stroke-linecap="round"/>
</g>
<g filter="url(#filter5_d_2793_568)">
<path d="M34.768 65.144C34.768 62.12 35.552 59.656 37.12 57.752C38.784 55.688 41.064 54.656 43.96 54.656C46.056 54.656 47.632 55.168 48.688 56.192C49.744 57.2 50.272 58.776 50.272 60.92C50.272 64.184 49.44 66.768 47.776 68.672C46.128 70.544 43.92 71.48 41.152 71.48C38.992 71.48 37.384 70.944 36.328 69.872C35.288 68.784 34.768 67.208 34.768 65.144ZM41.08 60.176C40.36 63.056 40 65.632 40 67.904C40 68.448 40.088 68.896 40.264 69.248C40.456 69.6 40.792 69.776 41.272 69.776C41.768 69.776 42.168 69.664 42.472 69.44C42.776 69.2 43.048 68.816 43.288 68.288C43.672 67.424 44.04 66.08 44.392 64.256C44.76 62.416 44.96 61.12 44.992 60.368C45.024 59.6 45.04 58.928 45.04 58.352C45.04 57.776 44.952 57.304 44.776 56.936C44.6 56.568 44.272 56.384 43.792 56.384C43.328 56.384 42.936 56.528 42.616 56.816C42.024 57.36 41.512 58.48 41.08 60.176ZM62.6311 69.368C61.9591 70.04 61.1591 70.56 60.2311 70.928C59.3191 71.296 58.4071 71.48 57.4951 71.48C56.5831 71.48 55.9671 71.4 55.6471 71.24L54.9031 75.32L50.0311 75.8L53.3431 58.76L57.2551 58.352L56.9431 60.008C57.6151 58.872 58.6471 58.304 60.0391 58.304C61.6071 58.304 62.8071 58.808 63.6391 59.816C64.3751 60.728 64.7431 61.88 64.7431 63.272C64.7431 64.664 64.5591 65.856 64.1911 66.848C63.8231 67.84 63.3031 68.68 62.6311 69.368ZM55.9351 69.656C56.2711 69.944 56.6471 70.088 57.0631 70.088C57.4791 70.088 57.8071 70.008 58.0471 69.848C58.2871 69.688 58.4951 69.448 58.6711 69.128C59.1511 68.264 59.5831 66.52 59.9671 63.896C60.0791 63.128 60.1351 62.368 60.1351 61.616C60.1351 60.864 60.0471 60.368 59.8711 60.128C59.7111 59.888 59.4711 59.768 59.1511 59.768C58.1751 59.768 57.5271 60.72 57.2071 62.624L55.9351 69.656ZM67.2213 70.28C66.8533 69.864 66.5813 69.328 66.4053 68.672C66.2453 68.016 66.1653 67.152 66.1653 66.08C66.1653 65.008 66.3493 63.984 66.7173 63.008C67.0853 62.032 67.6053 61.192 68.2773 60.488C69.6533 59.016 71.4773 58.28 73.7493 58.28C74.5653 58.28 75.2693 58.416 75.8613 58.688L79.9653 58.28L78.1893 67.64C78.1413 67.832 78.1172 68.104 78.1172 68.456C78.1172 68.808 78.2213 69.096 78.4293 69.32C78.6533 69.544 78.9253 69.672 79.2453 69.704C79.0853 70.248 78.7092 70.68 78.1172 71C77.5413 71.32 76.9253 71.48 76.2693 71.48C75.6133 71.48 75.0613 71.352 74.6133 71.096C74.1813 70.856 73.9013 70.528 73.7733 70.112C73.5173 70.512 73.1173 70.84 72.5733 71.096C72.0293 71.352 71.3893 71.48 70.6533 71.48C69.9333 71.48 69.2773 71.384 68.6853 71.192C68.0933 71 67.6053 70.696 67.2213 70.28ZM72.2853 60.536C72.1093 60.824 71.9413 61.216 71.7812 61.712C71.6213 62.192 71.4053 63.088 71.1333 64.4C70.8773 65.696 70.7493 66.808 70.7493 67.736C70.7493 68.664 70.8213 69.264 70.9653 69.536C71.1093 69.808 71.3093 69.944 71.5653 69.944C72.0773 69.944 72.5173 69.704 72.8853 69.224C73.2693 68.728 73.5333 68.048 73.6773 67.184L74.9493 60.152C74.6133 59.864 74.2453 59.72 73.8453 59.72C73.4613 59.72 73.1493 59.784 72.9093 59.912C72.6853 60.04 72.4773 60.248 72.2853 60.536ZM80.6116 69.584C80.6116 68.976 80.8356 68.512 81.2836 68.192C81.7476 67.856 82.3156 67.688 82.9876 67.688C83.6596 67.688 84.2036 67.856 84.6196 68.192C85.0516 68.512 85.2676 68.976 85.2676 69.584C85.2676 70.192 85.0276 70.664 84.5476 71C84.0836 71.336 83.5156 71.504 82.8436 71.504C82.1716 71.504 81.6276 71.336 81.2116 71C80.8116 70.664 80.6116 70.192 80.6116 69.584ZM81.9076 65.072C81.9076 64.96 81.9236 64.824 81.9556 64.664L83.8276 55.016C84.4196 54.792 85.0676 54.68 85.7716 54.68C86.4756 54.68 87.0116 54.904 87.3796 55.352C87.7476 55.8 87.9316 56.36 87.9316 57.032C87.9316 57.688 87.8036 58.392 87.5476 59.144C87.2916 59.88 87.0036 60.624 86.6836 61.376C86.3796 62.128 86.0916 62.896 85.8196 63.68C85.5636 64.448 85.4276 65.24 85.4116 66.056C85.0436 66.472 84.5396 66.68 83.8996 66.68C83.2596 66.68 82.7636 66.536 82.4116 66.248C82.0756 65.944 81.9076 65.552 81.9076 65.072Z" fill="#5A5A5A"/>
</g>
<defs>
<filter id="filter0_d_2793_568" x="5" y="59" width="110" height="42" filterUnits="userSpaceOnUse" color-interpolation-filters="sRGB">
<feFlood flood-opacity="0" result="BackgroundImageFix"/>
<feColorMatrix in="SourceAlpha" type="matrix" values="0 0 0 0 0 0 0 0 0 0 0 0 0 0 0 0 0 0 127 0" result="hardAlpha"/>
<feOffset dy="4"/>
<feGaussianBlur stdDeviation="2"/>
<feComposite in2="hardAlpha" operator="out"/>
<feColorMatrix type="matrix" values="0 0 0 0 0 0 0 0 0 0 0 0 0 0 0 0 0 0 0.25 0"/>
<feBlend mode="normal" in2="BackgroundImageFix" result="effect1_dropShadow_2793_568"/>
<feBlend mode="normal" in="SourceGraphic" in2="effect1_dropShadow_2793_568" result="shape"/>
</filter>
<filter id="filter1_d_2793_568" x="15" y="38" width="91" height="52.8315" filterUnits="userSpaceOnUse" color-interpolation-filters="sRGB">
<feFlood flood-opacity="0" result="BackgroundImageFix"/>
<feColorMatrix in="SourceAlpha" type="matrix" values="0 0 0 0 0 0 0 0 0 0 0 0 0 0 0 0 0 0 127 0" result="hardAlpha"/>
<feOffset dy="4"/>
<feGaussianBlur stdDeviation="2"/>
<feComposite in2="hardAlpha" operator="out"/>
<feColorMatrix type="matrix" values="0 0 0 0 0 0 0 0 0 0 0 0 0 0 0 0 0 0 0.25 0"/>
<feBlend mode="normal" in2="BackgroundImageFix" result="effect1_dropShadow_2793_568"/>
<feBlend mode="normal" in="SourceGraphic" in2="effect1_dropShadow_2793_568" result="shape"/>
</filter>
<filter id="filter2_d_2793_568" x="27.7106" y="11.5" width="14.3831" height="34" filterUnits="userSpaceOnUse" color-interpolation-filters="sRGB">
<feFlood flood-opacity="0" result="BackgroundImageFix"/>
<feColorMatrix in="SourceAlpha" type="matrix" values="0 0 0 0 0 0 0 0 0 0 0 0 0 0 0 0 0 0 127 0" result="hardAlpha"/>
<feOffset dy="4"/>
<feGaussianBlur stdDeviation="2"/>
<feComposite in2="hardAlpha" operator="out"/>
<feColorMatrix type="matrix" values="0 0 0 0 0 0 0 0 0 0 0 0 0 0 0 0 0 0 0.25 0"/>
<feBlend mode="normal" in2="BackgroundImageFix" result="effect1_dropShadow_2793_568"/>
<feBlend mode="normal" in="SourceGraphic" in2="effect1_dropShadow_2793_568" result="shape"/>
</filter>
<filter id="filter3_d_2793_568" x="79.7106" y="11.5" width="14.3831" height="34" filterUnits="userSpaceOnUse" color-interpolation-filters="sRGB">
<feFlood flood-opacity="0" result="BackgroundImageFix"/>
<feColorMatrix in="SourceAlpha" type="matrix" values="0 0 0 0 0 0 0 0 0 0 0 0 0 0 0 0 0 0 127 0" result="hardAlpha"/>
<feOffset dy="4"/>
<feGaussianBlur stdDeviation="2"/>
<feComposite in2="hardAlpha" operator="out"/>
<feColorMatrix type="matrix" values="0 0 0 0 0 0 0 0 0 0 0 0 0 0 0 0 0 0 0.25 0"/>
<feBlend mode="normal" in2="BackgroundImageFix" result="effect1_dropShadow_2793_568"/>
<feBlend mode="normal" in="SourceGraphic" in2="effect1_dropShadow_2793_568" result="shape"/>
</filter>
<filter id="filter4_d_2793_568" x="53.7106" y="2.5" width="14.3831" height="34" filterUnits="userSpaceOnUse" color-interpolation-filters="sRGB">
<feFlood flood-opacity="0" result="BackgroundImageFix"/>
<feColorMatrix in="SourceAlpha" type="matrix" values="0 0 0 0 0 0 0 0 0 0 0 0 0 0 0 0 0 0 127 0" result="hardAlpha"/>
<feOffset dy="4"/>
<feGaussianBlur stdDeviation="2"/>
<feComposite in2="hardAlpha" operator="out"/>
<feColorMatrix type="matrix" values="0 0 0 0 0 0 0 0 0 0 0 0 0 0 0 0 0 0 0.25 0"/>
<feBlend mode="normal" in2="BackgroundImageFix" result="effect1_dropShadow_2793_568"/>
<feBlend mode="normal" in="SourceGraphic" in2="effect1_dropShadow_2793_568" result="shape"/>
</filter>
<filter id="filter5_d_2793_568" x="34.7679" y="54.656" width="53.1636" height="24.144" filterUnits="userSpaceOnUse" color-interpolation-filters="sRGB">
<feFlood flood-opacity="0" result="BackgroundImageFix"/>
<feColorMatrix in="SourceAlpha" type="matrix" values="0 0 0 0 0 0 0 0 0 0 0 0 0 0 0 0 0 0 127 0" result="hardAlpha"/>
<feOffset dy="3"/>
<feComposite in2="hardAlpha" operator="out"/>
<feColorMatrix type="matrix" values="0 0 0 0 1 0 0 0 0 0.811765 0 0 0 0 0.141176 0 0 0 1 0"/>
<feBlend mode="normal" in2="BackgroundImageFix" result="effect1_dropShadow_2793_568"/>
<feBlend mode="normal" in="SourceGraphic" in2="effect1_dropShadow_2793_568" result="shape"/>
</filter>
</defs>
</svg>
