<svg width="180" height="120" viewBox="0 0 180 120" fill="none" xmlns="http://www.w3.org/2000/svg">
<g filter="url(#filter0_d_2794_578)">
<path d="M17.048 65.384C17.048 57.32 19.1387 50.7493 23.32 45.672C27.7573 40.168 33.8373 37.416 41.56 37.416C47.1493 37.416 51.352 38.7813 54.168 41.512C56.984 44.2 58.392 48.4027 58.392 54.12C58.392 62.824 56.1733 69.7147 51.736 74.792C47.3413 79.784 41.4533 82.28 34.072 82.28C28.312 82.28 24.024 80.8507 21.208 77.992C18.4347 75.0907 17.048 70.888 17.048 65.384ZM33.88 52.136C31.96 59.816 31 66.6853 31 72.744C31 74.1947 31.2347 75.3893 31.704 76.328C32.216 77.2667 33.112 77.736 34.392 77.736C35.7147 77.736 36.7813 77.4373 37.592 76.84C38.4027 76.2 39.128 75.176 39.768 73.768C40.792 71.464 41.7733 67.88 42.712 63.016C43.6933 58.1093 44.2267 54.6533 44.312 52.648C44.3973 50.6 44.44 48.808 44.44 47.272C44.44 45.736 44.2053 44.4773 43.736 43.496C43.2667 42.5147 42.392 42.024 41.112 42.024C39.8747 42.024 38.8293 42.408 37.976 43.176C36.3973 44.6267 35.032 47.6133 33.88 52.136ZM91.3495 76.648C89.5575 78.44 87.4242 79.8267 84.9495 80.808C82.5175 81.7893 80.0855 82.28 77.6535 82.28C75.2215 82.28 73.5788 82.0667 72.7255 81.64L70.7415 92.52L57.7495 93.8L66.5815 48.36L77.0135 47.272L76.1815 51.688C77.9735 48.6587 80.7255 47.144 84.4375 47.144C88.6188 47.144 91.8188 48.488 94.0375 51.176C96.0002 53.608 96.9815 56.68 96.9815 60.392C96.9815 64.104 96.4908 67.2827 95.5095 69.928C94.5282 72.5733 93.1415 74.8133 91.3495 76.648ZM73.4935 77.416C74.3895 78.184 75.3922 78.568 76.5015 78.568C77.6108 78.568 78.4855 78.3547 79.1255 77.928C79.7655 77.5013 80.3202 76.8613 80.7895 76.008C82.0695 73.704 83.2215 69.0533 84.2455 62.056C84.5442 60.008 84.6935 57.9813 84.6935 55.976C84.6935 53.9707 84.4588 52.648 83.9895 52.008C83.5628 51.368 82.9228 51.048 82.0695 51.048C79.4668 51.048 77.7388 53.5867 76.8855 58.664L73.4935 77.416ZM103.59 79.08C102.609 77.9707 101.883 76.5413 101.414 74.792C100.987 73.0427 100.774 70.7387 100.774 67.88C100.774 65.0213 101.265 62.2907 102.246 59.688C103.227 57.0853 104.614 54.8453 106.406 52.968C110.075 49.0427 114.939 47.08 120.998 47.08C123.174 47.08 125.051 47.4427 126.63 48.168L137.574 47.08L132.838 72.04C132.71 72.552 132.646 73.2773 132.646 74.216C132.646 75.1547 132.923 75.9227 133.478 76.52C134.075 77.1173 134.801 77.4587 135.654 77.544C135.227 78.9947 134.225 80.1467 132.646 81C131.11 81.8533 129.467 82.28 127.718 82.28C125.969 82.28 124.497 81.9387 123.302 81.256C122.15 80.616 121.403 79.7413 121.062 78.632C120.379 79.6987 119.313 80.5733 117.862 81.256C116.411 81.9387 114.705 82.28 112.742 82.28C110.822 82.28 109.073 82.024 107.494 81.512C105.915 81 104.614 80.1893 103.59 79.08ZM117.094 53.096C116.625 53.864 116.177 54.9093 115.75 56.232C115.323 57.512 114.747 59.9013 114.022 63.4C113.339 66.856 112.998 69.8213 112.998 72.296C112.998 74.7707 113.19 76.3707 113.574 77.096C113.958 77.8213 114.491 78.184 115.174 78.184C116.539 78.184 117.713 77.544 118.694 76.264C119.718 74.9413 120.422 73.128 120.806 70.824L124.198 52.072C123.302 51.304 122.321 50.92 121.254 50.92C120.23 50.92 119.398 51.0907 118.758 51.432C118.161 51.7733 117.606 52.328 117.094 53.096ZM139.297 77.224C139.297 75.6027 139.895 74.3653 141.09 73.512C142.327 72.616 143.842 72.168 145.634 72.168C147.426 72.168 148.876 72.616 149.986 73.512C151.138 74.3653 151.714 75.6027 151.714 77.224C151.714 78.8453 151.074 80.104 149.794 81C148.556 81.896 147.042 82.344 145.25 82.344C143.458 82.344 142.007 81.896 140.898 81C139.831 80.104 139.297 78.8453 139.297 77.224ZM142.754 65.192C142.754 64.8933 142.796 64.5307 142.882 64.104L147.874 38.376C149.452 37.7787 151.18 37.48 153.058 37.48C154.935 37.48 156.364 38.0773 157.346 39.272C158.327 40.4667 158.818 41.96 158.818 43.752C158.818 45.5013 158.476 47.3787 157.794 49.384C157.111 51.3467 156.343 53.3307 155.49 55.336C154.679 57.3413 153.911 59.3893 153.186 61.48C152.503 63.528 152.14 65.64 152.098 67.816C151.116 68.9253 149.772 69.48 148.066 69.48C146.359 69.48 145.036 69.096 144.098 68.328C143.202 67.5173 142.754 66.472 142.754 65.192Z" fill="#5A5A5A"/>
</g>
<defs>
<filter id="filter0_d_2794_578" x="17.048" y="37.416" width="141.77" height="59.384" filterUnits="userSpaceOnUse" color-interpolation-filters="sRGB">
<feFlood flood-opacity="0" result="BackgroundImageFix"/>
<feColorMatrix in="SourceAlpha" type="matrix" values="0 0 0 0 0 0 0 0 0 0 0 0 0 0 0 0 0 0 127 0" result="hardAlpha"/>
<feOffset dy="3"/>
<feComposite in2="hardAlpha" operator="out"/>
<feColorMatrix type="matrix" values="0 0 0 0 1 0 0 0 0 0.811765 0 0 0 0 0.141176 0 0 0 1 0"/>
<feBlend mode="normal" in2="BackgroundImageFix" result="effect1_dropShadow_2794_578"/>
<feBlend mode="normal" in="SourceGraphic" in2="effect1_dropShadow_2794_578" result="shape"/>
</filter>
</defs>
</svg>
