<svg width="129" height="128" viewBox="0 0 129 128" fill="none" xmlns="http://www.w3.org/2000/svg">
<g filter="url(#filter0_d_2800_509)">
<ellipse cx="64.5" cy="98" rx="57.5" ry="19" fill="white"/>
<path d="M64.5 118.5C80.4935 118.5 95.0347 116.36 105.629 112.859C110.919 111.112 115.307 108.998 118.405 106.578C121.484 104.172 123.5 101.286 123.5 98C123.5 94.7144 121.484 91.8278 118.405 89.4223C115.307 87.0024 110.919 84.8885 105.629 83.1407C95.0347 79.6399 80.4935 77.5 64.5 77.5C48.5065 77.5 33.9653 79.6399 23.3707 83.1407C18.0815 84.8885 13.6927 87.0024 10.5952 89.4223C7.51608 91.8278 5.5 94.7144 5.5 98C5.5 101.286 7.51608 104.172 10.5952 106.578C13.6927 108.998 18.0815 111.112 23.3707 112.859C33.9653 116.36 48.5065 118.5 64.5 118.5Z" stroke="#5A5A5A" stroke-width="3"/>
</g>
<g filter="url(#filter1_d_2800_509)">
<path d="M114 90.4962C114 111.192 94.1417 106.556 63.8193 106.556C33.4968 106.556 16 111.192 16 90.4962C16 69.8001 36.4487 47 66.7711 47C97.0935 47 114 69.8001 114 90.4962Z" fill="white"/>
<path d="M112.5 90.4962C112.5 95.4363 111.318 98.6021 109.332 100.707C107.322 102.838 104.271 104.117 100.039 104.807C95.8086 105.497 90.6047 105.569 84.4795 105.457C82.4329 105.42 80.2821 105.363 78.0393 105.302C73.6252 105.184 68.8545 105.056 63.8193 105.056C58.7306 105.056 53.9791 105.187 49.6366 105.306C47.498 105.365 45.4586 105.421 43.527 105.457C37.6205 105.569 32.7216 105.496 28.7972 104.81C24.8834 104.125 22.1424 102.864 20.3484 100.763C18.555 98.6625 17.5 95.4792 17.5 90.4962C17.5 70.7279 37.1741 48.5 66.7711 48.5C96.2186 48.5 112.5 70.5813 112.5 90.4962Z" stroke="#5A5A5A" stroke-width="3"/>
</g>
<path d="M22 92C22 72 44.3542 58 51 58" stroke="#5A5A5A" stroke-width="3" stroke-linecap="round"/>
<path d="M57 56L57.3999 55.8375C61.9018 54.0087 66.9155 53.8813 71.5044 55.4792L73 56" stroke="#5A5A5A" stroke-width="3" stroke-linecap="round"/>
<path d="M72.5 46.659C72.5 47.6367 72.284 48.1507 72.0609 48.4431C71.8385 48.7346 71.4709 48.9872 70.8106 49.1734C70.1324 49.3645 69.2574 49.4538 68.1552 49.4851C67.4141 49.5062 66.6399 49.5006 65.8019 49.4946C65.385 49.4916 64.9523 49.4885 64.5 49.4885C64.0477 49.4885 63.615 49.4916 63.1981 49.4946C62.3601 49.5006 61.5859 49.5062 60.8448 49.4851C59.7426 49.4538 58.8676 49.3645 58.1894 49.1734C57.5291 48.9872 57.1615 48.7346 56.9391 48.4431C56.716 48.1507 56.5 47.6367 56.5 46.659C56.5 42.833 59.9478 39.5 64.5 39.5C69.0522 39.5 72.5 42.833 72.5 46.659Z" fill="white" stroke="#5A5A5A" stroke-width="3"/>
<g filter="url(#filter2_d_2800_509)">
<path d="M35.8947 45L34.8045 43.4855C31.9138 39.4699 31.8137 34.0834 34.5532 29.9632V29.9632C36.1316 27.5892 36.804 24.7268 36.4476 21.8983L36.4117 21.6131C36.0758 18.9467 34.8999 16.4564 33.0542 14.503L32.5789 14" stroke="#5A5A5A" stroke-width="3" stroke-linecap="round"/>
</g>
<g filter="url(#filter3_d_2800_509)">
<path d="M97.8947 45L96.8045 43.4855C93.9138 39.4699 93.8137 34.0834 96.5532 29.9632V29.9632C98.1316 27.5892 98.804 24.7268 98.4476 21.8983L98.4117 21.6131C98.0758 18.9467 96.8998 16.4564 95.0542 14.503L94.5789 14" stroke="#5A5A5A" stroke-width="3" stroke-linecap="round"/>
</g>
<g filter="url(#filter4_d_2800_509)">
<path d="M66.8947 33L65.8045 31.4855C62.9138 27.4699 62.8137 22.0834 65.5532 17.9632V17.9632C67.1316 15.5892 67.804 12.7268 67.4476 9.89832L67.4117 9.61314C67.0758 6.94672 65.8999 4.45645 64.0542 2.50297L63.5789 2" stroke="#5A5A5A" stroke-width="3" stroke-linecap="round"/>
</g>
<g filter="url(#filter5_d_2800_509)">
<path d="M33.768 83.144C33.768 80.12 34.552 77.656 36.12 75.752C37.784 73.688 40.064 72.656 42.96 72.656C45.056 72.656 46.632 73.168 47.688 74.192C48.744 75.2 49.272 76.776 49.272 78.92C49.272 82.184 48.44 84.768 46.776 86.672C45.128 88.544 42.92 89.48 40.152 89.48C37.992 89.48 36.384 88.944 35.328 87.872C34.288 86.784 33.768 85.208 33.768 83.144ZM40.08 78.176C39.36 81.056 39 83.632 39 85.904C39 86.448 39.088 86.896 39.264 87.248C39.456 87.6 39.792 87.776 40.272 87.776C40.768 87.776 41.168 87.664 41.472 87.44C41.776 87.2 42.048 86.816 42.288 86.288C42.672 85.424 43.04 84.08 43.392 82.256C43.76 80.416 43.96 79.12 43.992 78.368C44.024 77.6 44.04 76.928 44.04 76.352C44.04 75.776 43.952 75.304 43.776 74.936C43.6 74.568 43.272 74.384 42.792 74.384C42.328 74.384 41.936 74.528 41.616 74.816C41.024 75.36 40.512 76.48 40.08 78.176ZM61.6311 87.368C60.9591 88.04 60.1591 88.56 59.2311 88.928C58.3191 89.296 57.4071 89.48 56.4951 89.48C55.5831 89.48 54.9671 89.4 54.6471 89.24L53.9031 93.32L49.0311 93.8L52.3431 76.76L56.2551 76.352L55.9431 78.008C56.6151 76.872 57.6471 76.304 59.0391 76.304C60.6071 76.304 61.8071 76.808 62.6391 77.816C63.3751 78.728 63.7431 79.88 63.7431 81.272C63.7431 82.664 63.5591 83.856 63.1911 84.848C62.8231 85.84 62.3031 86.68 61.6311 87.368ZM54.9351 87.656C55.2711 87.944 55.6471 88.088 56.0631 88.088C56.4791 88.088 56.8071 88.008 57.0471 87.848C57.2871 87.688 57.4951 87.448 57.6711 87.128C58.1511 86.264 58.5831 84.52 58.9671 81.896C59.0791 81.128 59.1351 80.368 59.1351 79.616C59.1351 78.864 59.0471 78.368 58.8711 78.128C58.7111 77.888 58.4711 77.768 58.1511 77.768C57.1751 77.768 56.5271 78.72 56.2071 80.624L54.9351 87.656ZM66.2213 88.28C65.8533 87.864 65.5813 87.328 65.4053 86.672C65.2453 86.016 65.1653 85.152 65.1653 84.08C65.1653 83.008 65.3493 81.984 65.7173 81.008C66.0853 80.032 66.6053 79.192 67.2773 78.488C68.6533 77.016 70.4773 76.28 72.7493 76.28C73.5653 76.28 74.2693 76.416 74.8613 76.688L78.9653 76.28L77.1893 85.64C77.1413 85.832 77.1172 86.104 77.1172 86.456C77.1172 86.808 77.2213 87.096 77.4293 87.32C77.6533 87.544 77.9253 87.672 78.2453 87.704C78.0853 88.248 77.7092 88.68 77.1172 89C76.5413 89.32 75.9253 89.48 75.2693 89.48C74.6133 89.48 74.0613 89.352 73.6133 89.096C73.1813 88.856 72.9013 88.528 72.7733 88.112C72.5173 88.512 72.1173 88.84 71.5733 89.096C71.0293 89.352 70.3893 89.48 69.6533 89.48C68.9333 89.48 68.2773 89.384 67.6853 89.192C67.0933 89 66.6053 88.696 66.2213 88.28ZM71.2853 78.536C71.1093 78.824 70.9413 79.216 70.7812 79.712C70.6213 80.192 70.4053 81.088 70.1333 82.4C69.8773 83.696 69.7493 84.808 69.7493 85.736C69.7493 86.664 69.8213 87.264 69.9653 87.536C70.1093 87.808 70.3093 87.944 70.5653 87.944C71.0773 87.944 71.5173 87.704 71.8853 87.224C72.2693 86.728 72.5333 86.048 72.6773 85.184L73.9493 78.152C73.6133 77.864 73.2453 77.72 72.8453 77.72C72.4613 77.72 72.1493 77.784 71.9093 77.912C71.6853 78.04 71.4773 78.248 71.2853 78.536ZM79.6116 87.584C79.6116 86.976 79.8356 86.512 80.2836 86.192C80.7476 85.856 81.3156 85.688 81.9876 85.688C82.6596 85.688 83.2036 85.856 83.6196 86.192C84.0516 86.512 84.2676 86.976 84.2676 87.584C84.2676 88.192 84.0276 88.664 83.5476 89C83.0836 89.336 82.5156 89.504 81.8436 89.504C81.1716 89.504 80.6276 89.336 80.2116 89C79.8116 88.664 79.6116 88.192 79.6116 87.584ZM80.9076 83.072C80.9076 82.96 80.9236 82.824 80.9556 82.664L82.8276 73.016C83.4196 72.792 84.0676 72.68 84.7716 72.68C85.4756 72.68 86.0116 72.904 86.3796 73.352C86.7476 73.8 86.9316 74.36 86.9316 75.032C86.9316 75.688 86.8036 76.392 86.5476 77.144C86.2916 77.88 86.0036 78.624 85.6836 79.376C85.3796 80.128 85.0916 80.896 84.8196 81.68C84.5636 82.448 84.4276 83.24 84.4116 84.056C84.0436 84.472 83.5396 84.68 82.8996 84.68C82.2596 84.68 81.7636 84.536 81.4116 84.248C81.0756 83.944 80.9076 83.552 80.9076 83.072Z" fill="#5A5A5A"/>
</g>
<defs>
<filter id="filter0_d_2800_509" x="0" y="76" width="129" height="52" filterUnits="userSpaceOnUse" color-interpolation-filters="sRGB">
<feFlood flood-opacity="0" result="BackgroundImageFix"/>
<feColorMatrix in="SourceAlpha" type="matrix" values="0 0 0 0 0 0 0 0 0 0 0 0 0 0 0 0 0 0 127 0" result="hardAlpha"/>
<feOffset dy="4"/>
<feGaussianBlur stdDeviation="2"/>
<feComposite in2="hardAlpha" operator="out"/>
<feColorMatrix type="matrix" values="0 0 0 0 0 0 0 0 0 0 0 0 0 0 0 0 0 0 0.25 0"/>
<feBlend mode="normal" in2="BackgroundImageFix" result="effect1_dropShadow_2800_509"/>
<feBlend mode="normal" in="SourceGraphic" in2="effect1_dropShadow_2800_509" result="shape"/>
</filter>
<filter id="filter1_d_2800_509" x="12" y="47" width="106" height="68" filterUnits="userSpaceOnUse" color-interpolation-filters="sRGB">
<feFlood flood-opacity="0" result="BackgroundImageFix"/>
<feColorMatrix in="SourceAlpha" type="matrix" values="0 0 0 0 0 0 0 0 0 0 0 0 0 0 0 0 0 0 127 0" result="hardAlpha"/>
<feOffset dy="4"/>
<feGaussianBlur stdDeviation="2"/>
<feComposite in2="hardAlpha" operator="out"/>
<feColorMatrix type="matrix" values="0 0 0 0 0 0 0 0 0 0 0 0 0 0 0 0 0 0 0.25 0"/>
<feBlend mode="normal" in2="BackgroundImageFix" result="effect1_dropShadow_2800_509"/>
<feBlend mode="normal" in="SourceGraphic" in2="effect1_dropShadow_2800_509" result="shape"/>
</filter>
<filter id="filter2_d_2800_509" x="27.0654" y="12.5" width="14.9755" height="42.0001" filterUnits="userSpaceOnUse" color-interpolation-filters="sRGB">
<feFlood flood-opacity="0" result="BackgroundImageFix"/>
<feColorMatrix in="SourceAlpha" type="matrix" values="0 0 0 0 0 0 0 0 0 0 0 0 0 0 0 0 0 0 127 0" result="hardAlpha"/>
<feOffset dy="4"/>
<feGaussianBlur stdDeviation="2"/>
<feComposite in2="hardAlpha" operator="out"/>
<feColorMatrix type="matrix" values="0 0 0 0 0 0 0 0 0 0 0 0 0 0 0 0 0 0 0.25 0"/>
<feBlend mode="normal" in2="BackgroundImageFix" result="effect1_dropShadow_2800_509"/>
<feBlend mode="normal" in="SourceGraphic" in2="effect1_dropShadow_2800_509" result="shape"/>
</filter>
<filter id="filter3_d_2800_509" x="89.0654" y="12.5" width="14.9755" height="42.0001" filterUnits="userSpaceOnUse" color-interpolation-filters="sRGB">
<feFlood flood-opacity="0" result="BackgroundImageFix"/>
<feColorMatrix in="SourceAlpha" type="matrix" values="0 0 0 0 0 0 0 0 0 0 0 0 0 0 0 0 0 0 127 0" result="hardAlpha"/>
<feOffset dy="4"/>
<feGaussianBlur stdDeviation="2"/>
<feComposite in2="hardAlpha" operator="out"/>
<feColorMatrix type="matrix" values="0 0 0 0 0 0 0 0 0 0 0 0 0 0 0 0 0 0 0.25 0"/>
<feBlend mode="normal" in2="BackgroundImageFix" result="effect1_dropShadow_2800_509"/>
<feBlend mode="normal" in="SourceGraphic" in2="effect1_dropShadow_2800_509" result="shape"/>
</filter>
<filter id="filter4_d_2800_509" x="58.0654" y="0.5" width="14.9755" height="42.0001" filterUnits="userSpaceOnUse" color-interpolation-filters="sRGB">
<feFlood flood-opacity="0" result="BackgroundImageFix"/>
<feColorMatrix in="SourceAlpha" type="matrix" values="0 0 0 0 0 0 0 0 0 0 0 0 0 0 0 0 0 0 127 0" result="hardAlpha"/>
<feOffset dy="4"/>
<feGaussianBlur stdDeviation="2"/>
<feComposite in2="hardAlpha" operator="out"/>
<feColorMatrix type="matrix" values="0 0 0 0 0 0 0 0 0 0 0 0 0 0 0 0 0 0 0.25 0"/>
<feBlend mode="normal" in2="BackgroundImageFix" result="effect1_dropShadow_2800_509"/>
<feBlend mode="normal" in="SourceGraphic" in2="effect1_dropShadow_2800_509" result="shape"/>
</filter>
<filter id="filter5_d_2800_509" x="33.7679" y="72.656" width="53.1636" height="24.144" filterUnits="userSpaceOnUse" color-interpolation-filters="sRGB">
<feFlood flood-opacity="0" result="BackgroundImageFix"/>
<feColorMatrix in="SourceAlpha" type="matrix" values="0 0 0 0 0 0 0 0 0 0 0 0 0 0 0 0 0 0 127 0" result="hardAlpha"/>
<feOffset dy="3"/>
<feComposite in2="hardAlpha" operator="out"/>
<feColorMatrix type="matrix" values="0 0 0 0 1 0 0 0 0 0.811765 0 0 0 0 0.141176 0 0 0 1 0"/>
<feBlend mode="normal" in2="BackgroundImageFix" result="effect1_dropShadow_2800_509"/>
<feBlend mode="normal" in="SourceGraphic" in2="effect1_dropShadow_2800_509" result="shape"/>
</filter>
</defs>
</svg>
