<svg width="51" height="51" viewBox="0 0 51 51" fill="none" xmlns="http://www.w3.org/2000/svg">
<rect width="51" height="51" rx="7" fill="#FBE691"/>
<path fill-rule="evenodd" clip-rule="evenodd" d="M31.6562 14.2188C31.6562 12.8512 31.113 11.5397 30.146 10.5727C29.179 9.60575 27.8675 9.0625 26.5 9.0625C25.1325 9.0625 23.821 9.60575 22.854 10.5727C21.887 11.5397 21.3438 12.8512 21.3438 14.2188V15.25H31.6562V14.2188ZM33.7188 14.2188V15.25H40.9375V35.875C40.9375 36.969 40.5029 38.0182 39.7293 38.7918C38.9557 39.5654 37.9065 40 36.8125 40H16.1875C15.0935 40 14.0443 39.5654 13.2707 38.7918C12.4971 38.0182 12.0625 36.969 12.0625 35.875V15.25H19.2812V14.2188C19.2812 12.3042 20.0418 10.4681 21.3956 9.11432C22.7494 7.76054 24.5855 7 26.5 7C28.4145 7 30.2506 7.76054 31.6044 9.11432C32.9582 10.4681 33.7188 12.3042 33.7188 14.2188V14.2188ZM27.5312 23.5C27.5312 23.2265 27.4226 22.9642 27.2292 22.7708C27.0358 22.5774 26.7735 22.4688 26.5 22.4688C26.2265 22.4688 25.9642 22.5774 25.7708 22.7708C25.5774 22.9642 25.4688 23.2265 25.4688 23.5V26.5938H22.375C22.1015 26.5938 21.8392 26.7024 21.6458 26.8958C21.4524 27.0892 21.3438 27.3515 21.3438 27.625C21.3438 27.8985 21.4524 28.1608 21.6458 28.3542C21.8392 28.5476 22.1015 28.6562 22.375 28.6562H25.4688V31.75C25.4688 32.0235 25.5774 32.2858 25.7708 32.4792C25.9642 32.6726 26.2265 32.7812 26.5 32.7812C26.7735 32.7812 27.0358 32.6726 27.2292 32.4792C27.4226 32.2858 27.5312 32.0235 27.5312 31.75V28.6562H30.625C30.8985 28.6562 31.1608 28.5476 31.3542 28.3542C31.5476 28.1608 31.6562 27.8985 31.6562 27.625C31.6562 27.3515 31.5476 27.0892 31.3542 26.8958C31.1608 26.7024 30.8985 26.5938 30.625 26.5938H27.5312V23.5Z" fill="white"/>
</svg>
