<svg width="51" height="51" viewBox="0 0 51 51" fill="none" xmlns="http://www.w3.org/2000/svg">
<rect width="51" height="51" rx="7" fill="#FBE691"/>
<g clip-path="url(#clip0_2809_511)">
<path d="M19.2712 11.0625C19.1166 11.0627 18.9641 11.0977 18.8248 11.1648C18.6856 11.2319 18.5633 11.3295 18.4668 11.4502L12.1762 19.3125H21.3749C21.6484 19.3125 21.9107 19.4211 22.1041 19.6145C22.2975 19.8079 22.4062 20.0702 22.4062 20.3438C22.4062 21.1643 22.7321 21.9512 23.3123 22.5314C23.8925 23.1116 24.6794 23.4375 25.4999 23.4375C26.3204 23.4375 27.1074 23.1116 27.6875 22.5314C28.2677 21.9512 28.5937 21.1643 28.5937 20.3438C28.5937 20.0702 28.7023 19.8079 28.8957 19.6145C29.0891 19.4211 29.3514 19.3125 29.6249 19.3125H38.8237L32.5331 11.4502C32.4366 11.3295 32.3142 11.2319 32.175 11.1648C32.0358 11.0977 31.8832 11.0627 31.7287 11.0625H19.2712ZM16.8581 10.1612C17.1476 9.79923 17.5148 9.50695 17.9325 9.30596C18.3502 9.10498 18.8077 9.00041 19.2712 9H31.7287C32.1922 9.00041 32.6497 9.10498 33.0674 9.30596C33.4851 9.50695 33.8523 9.79923 34.1418 10.1612L41.7731 19.7003C41.8592 19.8077 41.9229 19.9313 41.9604 20.0638C41.998 20.1963 42.0086 20.335 41.9917 20.4716L41.1873 26.9149C41.0938 27.6633 40.73 28.3518 40.1645 28.8509C39.5989 29.35 38.8705 29.6253 38.1162 29.625H12.8836C12.1293 29.6253 11.4009 29.35 10.8354 28.8509C10.2698 28.3518 9.90609 27.6633 9.81256 26.9149L9.00818 20.4716C8.99128 20.335 9.00191 20.1963 9.03946 20.0638C9.07701 19.9313 9.14071 19.8077 9.22681 19.7003L16.8581 10.1612ZM9.25774 32.0381C9.35438 31.9281 9.47334 31.84 9.6067 31.7795C9.74005 31.7191 9.88476 31.6877 10.0312 31.6875H21.3749C21.6484 31.6875 21.9107 31.7961 22.1041 31.9895C22.2975 32.1829 22.4062 32.4452 22.4062 32.7188C22.4062 33.5393 22.7321 34.3262 23.3123 34.9064C23.8925 35.4866 24.6794 35.8125 25.4999 35.8125C26.3204 35.8125 27.1074 35.4866 27.6875 34.9064C28.2677 34.3262 28.5937 33.5393 28.5937 32.7188C28.5937 32.4452 28.7023 32.1829 28.8957 31.9895C29.0891 31.7961 29.3514 31.6875 29.6249 31.6875H40.9687C41.1149 31.6875 41.2594 31.7187 41.3926 31.7788C41.5259 31.839 41.6448 31.9267 41.7416 32.0364C41.8383 32.146 41.9106 32.2749 41.9538 32.4146C41.9969 32.5543 42.0098 32.7016 41.9917 32.8466L41.1873 39.2899C41.0938 40.0383 40.73 40.7268 40.1645 41.2259C39.5989 41.725 38.8705 42.0003 38.1162 42H12.8836C12.1293 42.0003 11.4009 41.725 10.8354 41.2259C10.2698 40.7268 9.90609 40.0383 9.81256 39.2899L9.00818 32.8466C8.98994 32.7015 9.00275 32.5542 9.04578 32.4145C9.08881 32.2748 9.16106 32.1458 9.25774 32.0361V32.0381Z" fill="white"/>
</g>
<defs>
<clipPath id="clip0_2809_511">
<rect width="33" height="33" fill="white" transform="translate(9 9)"/>
</clipPath>
</defs>
</svg>
