<svg width="31" height="31" viewBox="0 0 31 31" fill="none" xmlns="http://www.w3.org/2000/svg">
<path d="M0 8.71875C0 7.94796 0.306193 7.20875 0.851221 6.66372C1.39625 6.11869 2.13546 5.8125 2.90625 5.8125H28.0938C28.8645 5.8125 29.6038 6.11869 30.1488 6.66372C30.6938 7.20875 31 7.94796 31 8.71875V11.625C31 11.8819 30.8979 12.1283 30.7163 12.31C30.5346 12.4917 30.2882 12.5938 30.0312 12.5938C29.2605 12.5938 28.5212 12.8999 27.9762 13.445C27.4312 13.99 27.125 14.7292 27.125 15.5C27.125 16.2708 27.4312 17.01 27.9762 17.555C28.5212 18.1001 29.2605 18.4062 30.0312 18.4062C30.2882 18.4062 30.5346 18.5083 30.7163 18.69C30.8979 18.8717 31 19.1181 31 19.375V22.2812C31 23.052 30.6938 23.7913 30.1488 24.3363C29.6038 24.8813 28.8645 25.1875 28.0938 25.1875H2.90625C2.13546 25.1875 1.39625 24.8813 0.851221 24.3363C0.306193 23.7913 0 23.052 0 22.2812L0 19.375C0 19.1181 0.102064 18.8717 0.28374 18.69C0.465416 18.5083 0.711821 18.4062 0.96875 18.4062C1.73954 18.4062 2.47875 18.1001 3.02378 17.555C3.56881 17.01 3.875 16.2708 3.875 15.5C3.875 14.7292 3.56881 13.99 3.02378 13.445C2.47875 12.8999 1.73954 12.5938 0.96875 12.5938C0.711821 12.5938 0.465416 12.4917 0.28374 12.31C0.102064 12.1283 0 11.8819 0 11.625V8.71875ZM7.75 10.6562C7.75 10.9132 7.85206 11.1596 8.03374 11.3413C8.21542 11.5229 8.46182 11.625 8.71875 11.625H22.2812C22.5382 11.625 22.7846 11.5229 22.9663 11.3413C23.1479 11.1596 23.25 10.9132 23.25 10.6562C23.25 10.3993 23.1479 10.1529 22.9663 9.97124C22.7846 9.78956 22.5382 9.6875 22.2812 9.6875H8.71875C8.46182 9.6875 8.21542 9.78956 8.03374 9.97124C7.85206 10.1529 7.75 10.3993 7.75 10.6562ZM7.75 20.3438C7.75 20.6007 7.85206 20.8471 8.03374 21.0288C8.21542 21.2104 8.46182 21.3125 8.71875 21.3125H22.2812C22.5382 21.3125 22.7846 21.2104 22.9663 21.0288C23.1479 20.8471 23.25 20.6007 23.25 20.3438C23.25 20.0868 23.1479 19.8404 22.9663 19.6587C22.7846 19.4771 22.5382 19.375 22.2812 19.375H8.71875C8.46182 19.375 8.21542 19.4771 8.03374 19.6587C7.85206 19.8404 7.75 20.0868 7.75 20.3438ZM7.75 15.5C7.75 16.0139 7.95413 16.5067 8.31748 16.87C8.68083 17.2334 9.17364 17.4375 9.6875 17.4375H21.3125C21.8264 17.4375 22.3192 17.2334 22.6825 16.87C23.0459 16.5067 23.25 16.0139 23.25 15.5C23.25 14.9861 23.0459 14.4933 22.6825 14.13C22.3192 13.7666 21.8264 13.5625 21.3125 13.5625H9.6875C9.17364 13.5625 8.68083 13.7666 8.31748 14.13C7.95413 14.4933 7.75 14.9861 7.75 15.5Z" fill="#FFCF24"/>
</svg>
